<svg width="25" height="24" viewBox="0 0 25 24" fill="none" xmlns="http://www.w3.org/2000/svg">
<path fill-rule="evenodd" clip-rule="evenodd" d="M10.9906 11.3618C11.5246 11.1269 11.9886 10.744 12.3335 10.2536C12.6506 9.73273 12.8081 9.12135 12.7847 8.5026C12.8052 7.93833 12.7011 7.37677 12.4804 6.86243C12.295 6.41684 11.9975 6.03351 11.6201 5.75421C11.22 5.46383 10.7657 5.26733 10.2877 5.17794C9.72203 5.05262 9.14506 4.99316 8.56711 5.00063H2.60371C2.43802 5.00063 2.30371 5.13494 2.30371 5.30063V18.642C2.30371 18.8077 2.43802 18.942 2.60371 18.942H8.7035C9.28755 18.9425 9.86927 18.8643 10.4346 18.7093C10.9704 18.5629 11.4781 18.3191 11.9349 17.989C12.3773 17.665 12.7376 17.2312 12.984 16.7256C13.2567 16.1602 13.3902 15.5313 13.3722 14.897C13.3921 14.111 13.1833 13.3374 12.7742 12.6806C12.3342 12.02 11.6815 11.5512 10.9382 11.3618H10.9906ZM5.35369 7.25C5.24323 7.25 5.15369 7.33954 5.15369 7.45V10.55C5.15369 10.6605 5.24323 10.75 5.35369 10.75H8.15369C9.12018 10.75 9.90369 9.9665 9.90369 9C9.90369 8.0335 9.12018 7.25 8.15369 7.25H5.35369ZM5.15369 12.7C5.15369 12.5895 5.24323 12.5 5.35369 12.5H8.27869C9.45229 12.5 10.4037 13.4514 10.4037 14.625C10.4037 15.7986 9.45229 16.75 8.27869 16.75H5.35369C5.24323 16.75 5.15369 16.6605 5.15369 16.55V12.7Z" fill="#323232"/>
<path d="M16.2424 5.70996H20.9656C21.1297 5.70996 21.2633 5.84183 21.2655 6.00593L21.2785 6.96852C21.2807 7.13576 21.1458 7.27254 20.9785 7.27254H16.2424C16.0767 7.27254 15.9424 7.13823 15.9424 6.97254V6.00996C15.9424 5.84427 16.0767 5.70996 16.2424 5.70996Z" fill="#323232"/>
<path fill-rule="evenodd" clip-rule="evenodd" d="M18.7755 16.8695C19.2593 16.8851 19.7359 16.7418 20.1394 16.4594C20.3992 16.2864 20.6062 16.0393 20.7372 15.748C20.7719 15.6708 20.8463 15.6172 20.9309 15.6172H22.8519C22.9821 15.6172 23.0777 15.7398 23.0393 15.8643C22.7465 16.8133 22.1722 17.6406 21.3984 18.2215C20.5664 18.7597 19.6037 19.0293 18.6286 18.9972C17.9336 19.0097 17.2428 18.8818 16.5933 18.6204C16.0108 18.3765 15.4874 17.9978 15.0615 17.5122C14.6499 17.0176 14.336 16.4412 14.1383 15.8166C13.9055 15.127 13.7917 14.3988 13.8025 13.6667C13.7961 12.9448 13.9134 12.2277 14.1488 11.55C14.368 10.9222 14.7073 10.3488 15.1454 9.86552C15.5848 9.39168 16.1091 9.01495 16.6877 8.7573C17.3196 8.48139 17.9974 8.34197 18.6811 8.34726C19.408 8.33539 20.1273 8.50633 20.7794 8.84596C21.3655 9.16836 21.8748 9.62681 22.2692 10.1869C22.6609 10.7643 22.9457 11.4148 23.1085 12.1041C23.2767 12.8286 23.3369 13.5764 23.2868 14.3205H16.3415C16.3108 15.0352 16.544 15.7345 16.9919 16.271C17.2342 16.495 17.5177 16.6638 17.8246 16.7668C18.1315 16.8698 18.4552 16.9047 18.7755 16.8695ZM16.4039 12.3986C16.4039 12.4545 16.4492 12.4998 16.5051 12.4998H20.5527C20.6086 12.4998 20.6539 12.4545 20.6539 12.3986C20.6539 11.2809 19.7478 10.3748 18.6301 10.3748H18.4277C17.31 10.3748 16.4039 11.2809 16.4039 12.3986Z" fill="#323232"/>
</svg>
