<svg width="24" height="24" viewBox="0 0 24 24" fill="none" xmlns="http://www.w3.org/2000/svg">
<path d="M19.0243 5.57349C19.1264 5.50637 19.1439 5.36392 19.0596 5.27547C17.2837 3.41157 14.7773 2.25 11.9996 2.25C11.2627 2.25 10.5449 2.33175 9.85469 2.48669C9.71388 2.5183 9.65701 2.68574 9.74534 2.79987C11.0743 4.51704 12.274 6.3395 13.3297 8.25263C13.3775 8.33938 13.4815 8.37853 13.5743 8.34377C15.5029 7.62106 17.3288 6.68836 19.0243 5.57349Z" fill="#323232"/>
<path d="M2.67708 10.0606C2.55498 10.0552 2.46703 9.94159 2.49421 9.82244C3.17235 6.8499 5.20895 4.39449 7.91626 3.14398C7.99845 3.10601 8.09575 3.12966 8.15231 3.20036C9.52554 4.91693 10.7628 6.74688 11.8477 8.67389C11.9101 8.78478 11.8536 8.92471 11.7316 8.96079C9.25133 9.69397 6.62514 10.0875 3.90661 10.0875C3.49455 10.0875 3.08464 10.0785 2.67708 10.0606Z" fill="#323232"/>
<path d="M4.80045 18.2162C4.72177 18.3144 4.57309 18.3187 4.49277 18.2219C3.09208 16.5336 2.25 14.3653 2.25 12.0002C2.25 11.9144 2.25111 11.8288 2.25331 11.7435C2.25619 11.6324 2.35116 11.5469 2.46223 11.5523C2.94076 11.5757 3.42227 11.5876 3.9065 11.5876C6.90577 11.5876 9.79932 11.133 12.5217 10.2889C12.6153 10.2598 12.7163 10.3022 12.7602 10.3898C13.0676 11.0024 13.3599 11.6238 13.6367 12.2536C13.6863 12.3665 13.622 12.4965 13.5029 12.5283C10.0219 13.4576 6.98972 15.4853 4.80045 18.2162Z" fill="#323232"/>
<path d="M16.2718 20.602C16.2895 20.6906 16.2453 20.7801 16.1636 20.8188C14.901 21.4159 13.4896 21.7499 12.0001 21.7499C9.67991 21.7499 7.54899 20.9394 5.875 19.5862C5.79209 19.5192 5.77871 19.3983 5.84427 19.3143C7.89739 16.6813 10.7991 14.7443 14.1379 13.9136C14.2347 13.8895 14.3341 13.9417 14.3698 14.0348C15.18 16.1451 15.8196 18.3397 16.2718 20.602Z" fill="#323232"/>
<path d="M21.3744 13.8855C21.4779 13.9104 21.5427 14.0133 21.5196 14.1173C21.0142 16.3996 19.709 18.3813 17.913 19.753C17.7983 19.8407 17.6332 19.7766 17.6026 19.6354C17.1709 17.6454 16.5989 15.7078 15.8977 13.8333C15.8524 13.7124 15.9311 13.5804 16.0594 13.5656C16.6348 13.4994 17.22 13.4653 17.8132 13.4653C19.0404 13.4653 20.2328 13.6109 21.3744 13.8855Z" fill="#323232"/>
<path d="M19.973 6.74469C20.0657 6.68311 20.1911 6.70789 20.2504 6.80194C21.2004 8.30653 21.7501 10.089 21.7501 11.9999C21.7501 12.0627 21.7495 12.1255 21.7483 12.188C21.7459 12.3139 21.6269 12.4033 21.5041 12.3756C20.3163 12.107 19.0809 11.9653 17.8131 11.9653C16.9888 11.9653 16.1784 12.0252 15.3862 12.1408C15.2955 12.154 15.207 12.1048 15.1709 12.0206C14.87 11.3178 14.5506 10.6248 14.2133 9.94232C14.1607 9.83585 14.2113 9.70705 14.3221 9.66446C16.3216 8.89642 18.2147 7.91375 19.973 6.74469Z" fill="#323232"/>
</svg>
