<svg width="25" height="24" viewBox="0 0 25 24" fill="none" xmlns="http://www.w3.org/2000/svg">
<path d="M19.6667 20H5.66669C3.46669 20 1.66669 18.2 1.66669 16V8C1.66669 5.8 3.46669 4 5.66669 4H19.6667C21.8667 4 23.6667 5.8 23.6667 8V16C23.6667 18.2 21.8667 20 19.6667 20Z" fill="#323232"/>
<path d="M12.6667 12.6C12.0667 12.6 11.3667 12.4 10.8667 12.1L5.8667 9.19996C5.3667 8.99996 5.1667 8.29996 5.4667 7.89996C5.6667 7.39996 6.3667 7.19996 6.7667 7.49996L11.7667 10.4C12.2667 10.7 12.9667 10.7 13.4667 10.4L18.4667 7.49996C18.9667 7.19996 19.5667 7.39996 19.8667 7.89996C20.1667 8.39996 19.9667 8.99996 19.4667 9.29996L14.4667 12.2C13.9667 12.4 13.2667 12.6 12.6667 12.6Z" fill="white"/>
</svg>
