<svg width="158" height="43" viewBox="0 0 158 43" fill="none" xmlns="http://www.w3.org/2000/svg">
<path d="M1.3184 28.4032C0.5792 27.0144 0.2096 25.3792 0.2096 23.4976C0.2096 21.7504 0.5008 20.1936 1.0832 18.8272C1.688 17.4384 2.3376 16.3296 3.032 15.5008C3.7488 14.6496 4.6112 13.9776 5.6192 13.4848C6.6496 12.9696 7.736 12.712 8.8784 12.712C10.4912 12.712 11.7792 13.1712 12.7424 14.0896L17.144 10.3936C17.0544 9.6096 17.0096 8.8368 17.0096 8.0752C17.0096 3.1024 18.32 0.616 20.9408 0.616C21.6128 0.616 22.1392 0.8512 22.52 1.3216C22.9008 1.792 23.1136 2.3968 23.1584 3.136C23.1808 4.2112 22.8336 5.2864 22.1168 6.3616C21.4224 7.4368 20.392 8.6128 19.0256 9.8896C19.72 14.5264 20.0672 17.6848 20.0672 19.3648C20.0672 21.0224 19.8544 22.6352 19.4288 24.2032C19.0032 25.7488 18.3536 27.16 17.48 28.4368C16.6064 29.7136 15.408 30.7104 13.8848 31.4272C12.3616 32.144 10.592 32.5024 8.576 32.5024C5.6864 32.5024 3.5024 31.5168 2.024 29.5456C1.6208 30.9568 1.4192 32.5584 1.4192 34.3504C1.4192 36.1648 1.8896 37.7888 2.8304 39.2224C3.7936 40.6784 5.0256 41.4064 6.5264 41.4064C6.6384 41.4064 6.6944 41.5184 6.6944 41.7424C6.7168 41.9664 6.6608 42.0784 6.5264 42.0784C4.7568 42.0784 3.3008 41.2384 2.1584 39.5584C1.016 37.9008 0.4448 36.0528 0.4448 34.0144C0.4448 31.976 0.736 30.1056 1.3184 28.4032ZM13.3136 14.728C13.9408 15.5792 14.2544 16.5424 14.2544 17.6176C14.2544 18.6704 14.0864 19.6224 13.7504 20.4736C13.4368 21.3024 12.8656 22.0416 12.0368 22.6912C11.2304 23.3184 10.2896 23.632 9.2144 23.632C8.9904 23.632 8.8112 23.576 8.6768 23.464C8.5648 23.352 8.4864 23.1728 8.4416 22.9264C9.4048 22.9264 10.2896 22.4784 11.096 21.5824C12.2608 20.328 12.8432 18.9168 12.8432 17.3488C12.8432 16.6992 12.72 16.072 12.4736 15.4672C9.9648 17.6176 7.848 19.7232 6.1232 21.784C4.3984 23.8448 3.1328 26.0848 2.3264 28.504C3.6032 30.5648 5.608 31.5952 8.3408 31.5952C10.0208 31.5952 11.488 31.2368 12.7424 30.52C14.0192 29.8256 15.016 28.8736 15.7328 27.664C17.144 25.2896 17.8496 22.4112 17.8496 19.0288C17.8496 18.2 17.648 15.68 17.2448 11.4688L13.3136 14.728ZM11.9696 14.7616C11.2528 14 10.2672 13.6192 9.0128 13.6192C7.7584 13.6192 6.6272 13.9216 5.6192 14.5264C3.76 15.6464 2.4272 17.528 1.6208 20.1712C1.2624 21.2912 1.0832 22.4448 1.0832 23.632C1.0832 24.9536 1.296 26.1744 1.7216 27.2944C3.2672 23.4192 6.6832 19.2416 11.9696 14.7616ZM18.7232 6.3616C18.7232 6.9664 18.7792 7.7728 18.8912 8.7808C21.1088 6.608 22.2176 4.7712 22.2176 3.2704C22.2176 2.1056 21.792 1.5232 20.9408 1.5232C19.4624 1.5232 18.7232 3.136 18.7232 6.3616ZM25.7806 28.0336C24.011 28.0336 23.1262 26.7008 23.1262 24.0352C23.1262 22.4896 23.5294 20.7984 24.3358 18.9616C25.4558 16.4752 26.8782 14.8512 28.603 14.0896C29.2078 13.8432 29.8126 13.72 30.4174 13.72C31.0446 13.72 31.5374 13.8992 31.8958 14.2576C32.2542 14.616 32.4334 15.0192 32.4334 15.4672C32.4334 15.6688 32.3214 15.7696 32.0974 15.7696C31.8958 15.7472 31.795 15.6352 31.795 15.4336C31.795 15.232 31.683 15.0528 31.459 14.896C31.2574 14.7168 30.955 14.6272 30.5518 14.6272C29.1406 14.6272 27.8638 15.8928 26.7214 18.424C25.6462 20.776 25.1086 23.0048 25.1086 25.1104C25.1086 26.4096 25.3886 27.0592 25.9486 27.0592C26.531 27.0592 27.2254 26.5776 28.0318 25.6144C28.8606 24.6288 29.6222 23.4864 30.3166 22.1872C31.8174 19.4544 32.7022 17.696 32.971 16.912C33.2398 16.128 33.531 15.736 33.8446 15.736C34.4046 15.736 34.6846 16.2064 34.6846 17.1472C34.6846 17.4384 34.651 17.7744 34.5838 18.1552C33.8446 21.7392 33.4414 23.8112 33.3742 24.3712C33.3294 24.9312 33.307 25.3344 33.307 25.5808C33.307 26.656 33.5646 27.1936 34.0798 27.1936C34.6622 27.1936 35.4798 26.4208 36.5326 24.8752C37.5854 23.3296 38.4926 21.784 39.2542 20.2384L40.3966 17.92H41.3038C41.1694 18.1888 40.9902 18.5584 40.7662 19.0288C40.5646 19.4768 40.1502 20.2944 39.523 21.4816C38.8958 22.6464 38.291 23.6768 37.7086 24.5728C37.1486 25.4688 36.5102 26.2864 35.7934 27.0256C35.099 27.7424 34.4942 28.1008 33.979 28.1008C32.3214 28.1008 31.4926 26.8912 31.4926 24.472C31.4926 23.6656 31.5822 22.7248 31.7614 21.6496H31.5262C29.2414 25.9056 27.3262 28.0336 25.7806 28.0336ZM44.4765 10.0576H44.5437C44.7453 10.08 44.9021 10.1696 45.0141 10.3264C45.1261 10.4832 45.1821 10.6512 45.1821 10.8304C45.1821 10.9872 45.0253 11.3344 44.7117 11.872C44.4205 12.4096 44.2749 12.8464 44.2749 13.1824C44.2749 13.496 44.3197 13.7984 44.4093 14.0896C44.4989 14.3584 44.7789 15.0304 45.2493 16.1056C46.2797 18.4576 46.7949 20.5632 46.7949 22.4224C46.7949 24.2592 46.2909 25.7824 45.2829 26.992C44.2973 28.2016 43.1102 28.8064 41.7214 28.8064C40.355 28.8064 39.6718 27.9776 39.6718 26.32C39.6718 24.64 40.2654 22.848 41.4525 20.944C42.1469 19.8464 42.8973 19.0176 43.7037 18.4576C43.9277 18.3008 44.0733 18.3344 44.1405 18.5584C44.2301 18.7824 44.1853 18.9616 44.0062 19.096C42.7069 20.0368 41.6989 21.5264 40.9821 23.5648C40.3326 25.4016 40.2654 26.6784 40.7806 27.3952C40.9597 27.664 41.2173 27.7984 41.5533 27.7984C42.5389 27.7984 43.3117 27.1376 43.8717 25.816C44.4317 24.4944 44.7117 22.848 44.7117 20.8768C44.7117 19.1744 44.5101 17.5952 44.1069 16.1392C43.7037 14.6832 43.4797 13.8432 43.435 13.6192C42.7629 14.896 42.0349 16.3296 41.2509 17.92H40.3438C41.6205 15.3888 42.6061 13.4848 43.3005 12.208C43.3902 10.7744 43.7822 10.0576 44.4765 10.0576ZM57.7614 0.616C58.7694 0.616 59.2734 1.288 59.2734 2.632C59.2734 2.968 59.2398 3.36 59.1726 3.808C58.8366 5.936 57.9518 8.1312 56.5182 10.3936C55.4878 12.0288 54.5134 13.0592 53.595 13.4848C53.147 15.904 52.755 18.0992 52.419 20.0704H52.6542C54.5358 15.8816 56.4398 13.7872 58.3662 13.7872C59.0606 13.7872 59.5982 14 59.979 14.4256C60.3822 14.8512 60.5838 15.4336 60.5838 16.1728C60.5838 16.912 60.2926 18.536 59.7102 21.0448C59.1278 23.5312 58.8366 25.2672 58.8366 26.2528C58.8366 27.7088 59.1054 28.4368 59.643 28.4368C59.643 28.5936 59.5422 28.7504 59.3406 28.9072C59.139 29.064 58.9038 29.1424 58.635 29.1424C57.3358 29.1424 56.6862 28.1232 56.6862 26.0848C56.6862 24.8304 57.011 22.9712 57.6606 20.5072C58.3326 18.0208 58.6686 16.4192 58.6686 15.7024C58.6686 14.9856 58.3886 14.6272 57.8286 14.6272C57.179 14.6272 56.4622 15.176 55.6782 16.2736C54.8942 17.3712 54.1662 18.7712 53.4942 20.4736C52.3742 23.2064 51.5342 25.4912 50.9742 27.328C50.8398 27.776 50.6494 28 50.403 28C49.9998 28 49.6974 27.7536 49.4958 27.2608C49.3838 26.992 49.3278 26.712 49.3278 26.4208C49.3278 26.1072 49.4174 25.5472 49.5966 24.7408C49.7758 23.912 50.0782 22.4672 50.5038 20.4064C50.907 18.3456 51.2542 16.6432 51.5454 15.2992C51.8366 13.9328 52.1726 12.4096 52.5534 10.7296C52.9342 9.0272 53.2926 7.6496 53.6286 6.5968C53.987 5.5216 54.3902 4.4912 54.8382 3.5056C55.6894 1.5792 56.6638 0.616 57.7614 0.616ZM58.5006 2.6992C58.5006 1.9824 58.299 1.5456 57.8958 1.3888C56.5742 1.3888 55.2078 5.0848 53.7966 12.4768C54.6926 11.8496 55.6222 10.5952 56.5854 8.7136C57.8622 6.1824 58.5006 4.1776 58.5006 2.6992ZM65.7299 28.0336C63.9603 28.0336 63.0755 26.7008 63.0755 24.0352C63.0755 22.4896 63.4787 20.7984 64.2851 18.9616C65.4051 16.4752 66.8275 14.8512 68.5523 14.0896C69.1571 13.8432 69.7619 13.72 70.3667 13.72C70.9939 13.72 71.4867 13.8992 71.8451 14.2576C72.2035 14.616 72.3827 15.0192 72.3827 15.4672C72.3827 15.6688 72.2707 15.7696 72.0467 15.7696C71.8451 15.7472 71.7443 15.6352 71.7443 15.4336C71.7443 15.232 71.6323 15.0528 71.4083 14.896C71.2067 14.7168 70.9043 14.6272 70.5011 14.6272C69.0899 14.6272 67.8131 15.8928 66.6707 18.424C65.5955 20.776 65.0579 23.0048 65.0579 25.1104C65.0579 26.4096 65.3379 27.0592 65.8979 27.0592C66.4803 27.0592 67.1747 26.5776 67.9811 25.6144C68.8099 24.6288 69.5715 23.4864 70.2659 22.1872C71.7667 19.4544 72.6515 17.696 72.9203 16.912C73.1891 16.128 73.4803 15.736 73.7939 15.736C74.3539 15.736 74.6339 16.2064 74.6339 17.1472C74.6339 17.4384 74.6003 17.7744 74.5331 18.1552C73.7939 21.7392 73.3907 23.8112 73.3235 24.3712C73.2787 24.9312 73.2563 25.3344 73.2563 25.5808C73.2563 26.656 73.5139 27.1936 74.0291 27.1936C74.6115 27.1936 75.4291 26.4208 76.4819 24.8752C77.5347 23.3296 78.4419 21.784 79.2035 20.2384L80.3459 17.92H81.2531C81.1187 18.1888 80.9395 18.5584 80.7155 19.0288C80.5139 19.4768 80.0995 20.2944 79.4723 21.4816C78.8451 22.6464 78.2403 23.6768 77.6579 24.5728C77.0979 25.4688 76.4595 26.2864 75.7427 27.0256C75.0483 27.7424 74.4435 28.1008 73.9283 28.1008C72.2707 28.1008 71.4419 26.8912 71.4419 24.472C71.4419 23.6656 71.5315 22.7248 71.7107 21.6496H71.4755C69.1907 25.9056 67.2755 28.0336 65.7299 28.0336ZM111.82 0.0784005C113.88 0.0784005 114.911 1.624 114.911 4.7152C114.911 6.6864 114.373 8.96 113.298 11.536C111.73 15.2768 109.602 18.1552 106.914 20.1712C105.884 20.9328 104.831 21.5152 103.756 21.9184C102.68 24.696 101.325 26.7232 99.69 28C101.93 29.6576 103.554 30.7328 104.562 31.2256C105.57 31.7408 106.544 31.9984 107.485 31.9984C109.12 31.9984 110.196 31.4272 110.711 30.2848C110.868 29.9264 110.946 29.5904 110.946 29.2768C110.946 28.9632 110.856 28.6944 110.677 28.4704C110.52 28.2688 110.33 28.168 110.106 28.168C110.173 27.8992 110.341 27.7648 110.61 27.7648C111.372 27.7648 111.876 28.1904 112.122 29.0416C112.212 29.3328 112.256 29.6128 112.256 29.8816C112.256 30.5536 111.999 31.1808 111.484 31.7632C110.767 32.6144 109.703 33.04 108.292 33.04C106.522 33.04 104.82 32.5248 103.184 31.4944C102.266 30.9344 101.594 30.4976 101.168 30.184C100.765 29.8704 100.037 29.3104 98.9844 28.504C97.5956 29.3776 96.0612 29.8144 94.3812 29.8144C91.8948 29.8144 90.282 29.1872 89.5428 27.9328C89.3412 27.552 89.2404 27.16 89.2404 26.7568C89.2404 26.3312 89.4196 25.8944 89.778 25.4464C90.338 24.752 91.1444 24.4048 92.1972 24.4048C93.8772 24.4048 95.9716 25.312 98.4804 27.1264C99.4884 26.096 100.396 24.5616 101.202 22.5232C100.978 22.5456 100.653 22.5568 100.228 22.5568C96.5764 22.5568 93.8996 21.1008 92.1972 18.1888C91.1668 16.3968 90.6516 14.4144 90.6516 12.2416C90.6516 11.5024 90.7076 10.752 90.8196 9.9904C91.2228 7.1456 92.2756 4.9728 93.978 3.472C95.1428 2.4864 96.4644 1.9936 97.9428 1.9936C99.4212 1.9936 100.564 2.4752 101.37 3.4384C102.176 4.4016 102.602 5.5888 102.647 7C102.647 7.2016 102.535 7.3696 102.311 7.504C102.087 7.616 101.863 7.6496 101.639 7.6048C101.415 7.5376 101.303 7.392 101.303 7.168C101.258 5.824 100.989 4.76 100.496 3.976C100.004 3.1696 99.1188 2.7664 97.842 2.7664C95.826 2.7664 94.202 3.8752 92.97 6.0928C91.9844 7.84 91.4916 9.7664 91.4916 11.872C91.4916 15.7248 92.7348 18.5136 95.2212 20.2384C96.5876 21.2016 98.2452 21.6832 100.194 21.6832C100.642 21.6832 101.101 21.6496 101.572 21.5824C102.087 20.1936 102.636 18.3792 103.218 16.1392C103.8 13.8768 104.316 11.9168 104.764 10.2592C105.234 8.5792 105.783 6.9104 106.41 5.2528C107.709 1.8032 109.512 0.0784005 111.82 0.0784005ZM111.45 1.0528C109.882 1.0528 108.684 2.5648 107.855 5.5888C107.452 7.0448 107.093 8.5456 106.78 10.0912C105.861 14.8176 105.01 18.3456 104.226 20.6752C106.981 19.264 109.232 16.6208 110.98 12.7456C112.391 9.6544 113.085 6.8096 113.063 4.2112C112.996 2.1504 112.458 1.0976 111.45 1.0528ZM97.8756 27.6976C95.6804 26.0624 93.7876 25.2448 92.1972 25.2448C91.1892 25.2448 90.5508 25.6032 90.282 26.32C89.9908 27.0144 90.2932 27.6752 91.1892 28.3024C91.8612 28.7728 92.8804 29.008 94.2468 29.008C95.6132 29.008 96.8228 28.5712 97.8756 27.6976ZM115.851 28.0336C114.081 28.0336 113.197 26.7008 113.197 24.0352C113.197 22.4896 113.6 20.7984 114.406 18.9616C115.526 16.4752 116.949 14.8512 118.673 14.0896C119.278 13.8432 119.883 13.72 120.488 13.72C121.115 13.72 121.608 13.8992 121.966 14.2576C122.325 14.616 122.504 15.0192 122.504 15.4672C122.504 15.6688 122.392 15.7696 122.168 15.7696C121.966 15.7472 121.865 15.6352 121.865 15.4336C121.865 15.232 121.753 15.0528 121.529 14.896C121.328 14.7168 121.025 14.6272 120.622 14.6272C119.211 14.6272 117.934 15.8928 116.792 18.424C115.717 20.776 115.179 23.0048 115.179 25.1104C115.179 26.4096 115.459 27.0592 116.019 27.0592C116.601 27.0592 117.296 26.5776 118.102 25.6144C118.931 24.6288 119.693 23.4864 120.387 22.1872C121.888 19.4544 122.773 17.696 123.041 16.912C123.31 16.128 123.601 15.736 123.915 15.736C124.475 15.736 124.755 16.2064 124.755 17.1472C124.755 17.4384 124.721 17.7744 124.654 18.1552C123.915 21.7392 123.512 23.8112 123.445 24.3712C123.4 24.9312 123.377 25.3344 123.377 25.5808C123.377 26.656 123.635 27.1936 124.15 27.1936C124.733 27.1936 125.55 26.4208 126.603 24.8752C127.656 23.3296 128.563 21.784 129.325 20.2384L130.467 17.92H131.374C131.24 18.1888 131.061 18.5584 130.837 19.0288C130.635 19.4768 130.221 20.2944 129.593 21.4816C128.966 22.6464 128.361 23.6768 127.779 24.5728C127.219 25.4688 126.581 26.2864 125.864 27.0256C125.169 27.7424 124.565 28.1008 124.049 28.1008C122.392 28.1008 121.563 26.8912 121.563 24.472C121.563 23.6656 121.653 22.7248 121.832 21.6496H121.597C119.312 25.9056 117.397 28.0336 115.851 28.0336ZM129.944 28C129.316 28 129.003 27.5184 129.003 26.5552C129.003 26.04 129.63 22.288 130.884 15.2992C130.974 14.8288 131.176 14.5936 131.489 14.5936C131.892 14.5936 132.195 14.8848 132.396 15.4672C132.508 15.7808 132.564 16.128 132.564 16.5088C132.564 16.8672 132.52 17.2592 132.43 17.6848L131.892 20.44H132.06C133.987 15.96 135.756 13.72 137.369 13.72C138.265 13.72 138.859 14.1568 139.15 15.0304C139.262 15.3664 139.318 15.7584 139.318 16.2064C139.318 16.632 139.195 17.1024 138.948 17.6176C138.523 18.4912 137.884 18.928 137.033 18.928C136.854 18.928 136.708 18.8832 136.596 18.7936C136.507 18.704 136.451 18.5808 136.428 18.424C136.608 18.424 136.843 18.0992 137.134 17.4496C137.425 16.7776 137.593 16.1616 137.638 15.6016C137.683 15.0416 137.492 14.7168 137.067 14.6272C136.283 14.6272 135.353 15.6464 134.278 17.6848C133.203 19.7232 132.34 21.672 131.691 23.5312C131.041 25.3904 130.66 26.6 130.548 27.16C130.436 27.72 130.235 28 129.944 28ZM142.183 28.0336C140.413 28.0336 139.529 26.7008 139.529 24.0352C139.529 22.4896 139.932 20.7984 140.738 18.9616C141.858 16.4752 143.281 14.8512 145.005 14.0896C145.61 13.8432 146.215 13.72 146.82 13.72C147.447 13.72 147.94 13.8992 148.298 14.2576C148.657 14.616 148.836 15.0192 148.836 15.4672C148.836 15.6688 148.724 15.7696 148.5 15.7696C148.298 15.7472 148.197 15.6352 148.197 15.4336C148.197 15.232 148.085 15.0528 147.861 14.896C147.66 14.7168 147.357 14.6272 146.954 14.6272C145.543 14.6272 144.266 15.8928 143.124 18.424C142.049 20.776 141.511 23.0048 141.511 25.1104C141.511 26.4096 141.791 27.0592 142.351 27.0592C142.933 27.0592 143.628 26.5776 144.434 25.6144C145.263 24.6288 146.025 23.4864 146.719 22.1872C148.22 19.4544 149.105 17.696 149.373 16.912C149.642 16.128 149.933 15.736 150.247 15.736C150.807 15.736 151.087 16.2064 151.087 17.1472C151.087 17.4384 151.053 17.7744 150.986 18.1552C150.247 21.7392 149.844 23.8112 149.777 24.3712C149.732 24.9312 149.709 25.3344 149.709 25.5808C149.709 26.656 149.967 27.1936 150.482 27.1936C151.065 27.1936 151.882 26.4208 152.935 24.8752C153.988 23.3296 154.895 21.784 155.657 20.2384L156.799 17.92H157.706C157.572 18.1888 157.393 18.5584 157.169 19.0288C156.967 19.4768 156.553 20.2944 155.925 21.4816C155.298 22.6464 154.693 23.6768 154.111 24.5728C153.551 25.4688 152.913 26.2864 152.196 27.0256C151.501 27.7424 150.897 28.1008 150.381 28.1008C148.724 28.1008 147.895 26.8912 147.895 24.472C147.895 23.6656 147.985 22.7248 148.164 21.6496H147.929C145.644 25.9056 143.729 28.0336 142.183 28.0336Z" fill="white"/>
</svg>
